<svg xmlns="http://www.w3.org/2000/svg" xmlns:xlink="http://www.w3.org/1999/xlink" version="1.1" x="0px" y="0px" viewBox="0 0 48 60" style="enable-background:new 0 0 48 48;" xml:space="preserve"><path d="M15.3330078,42.3330078c-2.6264648,0-4.8154297-1.9091797-5.2529297-4.4121094  c-2.5039062-0.4375-4.4130859-2.6269531-4.4130859-5.2539062c0-2.9404297,2.3925781-5.3330078,5.3334961-5.3330078  c1.0854492,0,2.1206055,0.3212891,2.9970703,0.9199219l14.2563477-14.2558594  C27.6552734,13.1210938,27.3330078,12.0854492,27.3330078,11c0-2.9404297,2.3925781-5.3330078,5.3330078-5.3330078  c2.6269531,0,4.8164062,1.9091797,5.2539062,4.4125977c2.5039062,0.4370117,4.4130859,2.6264648,4.4130859,5.253418  c0,2.9404297-2.3925781,5.3330078-5.3339844,5.3330078c-1.0859375,0-2.1210938-0.3217773-2.9970703-0.9199219L19.7456055,34.0019531  C20.3447266,34.8798828,20.6665039,35.9150391,20.6665039,37C20.6665039,39.9404297,18.2739258,42.3330078,15.3330078,42.3330078z   M11.0004883,29.3339844c-1.8378906,0-3.3334961,1.4951172-3.3334961,3.3330078S9.1625977,36,11.0004883,36  c0.5522461,0,1,0.4472656,1,1c0,1.8378906,1.4951172,3.3330078,3.3325195,3.3330078  c1.8378906,0,3.3334961-1.4951172,3.3334961-3.3330078c0-0.8896484-0.3466797-1.7265625-0.9765625-2.3564453  c-0.3901367-0.390625-0.3901367-1.0234375,0.0004883-1.4140625l15.5390625-15.5390625  c0.1875-0.1875,0.4414062-0.2929688,0.7070312-0.2929688c0,0,0,0,0.0009766,0c0.2646484,0,0.5195312,0.105957,0.7070312,0.2939453  c0.6269531,0.628418,1.4628906,0.9746094,2.3544922,0.9746094c1.8378906,0,3.3339844-1.4951172,3.3339844-3.3330078  S38.8369141,12,36.9990234,12c-0.5527344,0-1-0.4477539-1-1c0-1.8378906-1.4951172-3.3330078-3.3330078-3.3330078  S29.3330078,9.1621094,29.3330078,11c0,0.890625,0.3466797,1.7270508,0.9765625,2.355957  c0.1875,0.1875,0.2929688,0.4418945,0.2929688,0.7070312c0,0.265625-0.1054688,0.5200195-0.2929688,0.7075195L14.7705078,30.3095703  c-0.1875,0.1875-0.4418945,0.2929688-0.7070312,0.2929688l0,0c-0.265625,0-0.5200195-0.1054688-0.7075195-0.2929688  C12.7275391,29.6806641,11.8911133,29.3339844,11.0004883,29.3339844z M17.5449219,21.8789062  c0.390625-0.390625,0.390625-1.0234375,0-1.4140625l-2.7744141-2.7744141c-0.375-0.3745117-1.0395508-0.3745117-1.4145508,0  c-0.628418,0.6293945-1.4648438,0.9755859-2.3554688,0.9755859c-1.8378906,0-3.3334961-1.4951172-3.3334961-3.3330078  S9.1625977,12,11.0004883,12c0.5522461,0,1-0.4477539,1-1c0-1.8378906,1.4951172-3.3330078,3.3325195-3.3330078  c1.8378906,0,3.3334961,1.4951172,3.3334961,3.3330078c0,0.8896484-0.3466797,1.7265625-0.9765625,2.3564453  c-0.3901367,0.390625-0.3901367,1.0234375,0.0004883,1.4140625l2.7739258,2.7744141  c0.390625,0.390625,1.0234375,0.390625,1.4140625,0c0.390625-0.3901367,0.390625-1.0234375,0-1.4140625l-2.1328125-2.1333008  C20.3447266,13.1201172,20.6665039,12.0849609,20.6665039,11c0-2.9404297-2.3925781-5.3330078-5.3334961-5.3330078  c-2.6264648,0-4.8154297,1.9091797-5.2529297,4.4125977c-2.5039062,0.4370117-4.4130859,2.6264648-4.4130859,5.253418  c0,2.9404297,2.3925781,5.3330078,5.3334961,5.3330078c1.0854492,0,2.1206055-0.3217773,2.9970703-0.9199219l2.1333008,2.1328125  c0.1953125,0.1953125,0.4511719,0.2929688,0.7070312,0.2929688S17.3496094,22.0742188,17.5449219,21.8789062z M37.921875,37.9208984  c2.5029297-0.4375,4.4121094-2.6269531,4.4121094-5.2539062c0-2.9404297-2.3925781-5.3330078-5.3330078-5.3330078  c-1.0849609,0-2.1210938,0.3222656-2.9980469,0.9199219l-2.1328125-2.1328125c-0.390625-0.390625-1.0234375-0.390625-1.4140625,0  s-0.390625,1.0234375,0,1.4140625l2.7744141,2.7744141c0.390625,0.390625,1.0234375,0.390625,1.4140625,0  c0.6289062-0.6289062,1.4658203-0.9755859,2.3564453-0.9755859c1.8378906,0,3.3330078,1.4951172,3.3330078,3.3330078  S38.8388672,36,37.0009766,36c-0.5527344,0-1,0.4472656-1,1c0,1.8378906-1.4951172,3.3330078-3.3330078,3.3330078  S29.3339844,38.8378906,29.3339844,37c0-0.8896484,0.3466797-1.7265625,0.9765625-2.3564453  c0.390625-0.390625,0.390625-1.0234375,0-1.4140625l-2.7734375-2.7744141c-0.390625-0.390625-1.0234375-0.390625-1.4140625,0  s-0.390625,1.0234375,0,1.4140625l2.1318359,2.1328125C27.65625,34.8798828,27.3339844,35.9150391,27.3339844,37  c0,2.9404297,2.3925781,5.3330078,5.3339844,5.3330078C35.2949219,42.3330078,37.484375,40.4238281,37.921875,37.9208984z"/><text x="0" y="63" fill="#000000" font-size="5px" font-weight="bold" font-family="'Helvetica Neue', Helvetica, Arial-Unicode, Arial, Sans-serif">Created by Knut M. Synstad</text><text x="0" y="68" fill="#000000" font-size="5px" font-weight="bold" font-family="'Helvetica Neue', Helvetica, Arial-Unicode, Arial, Sans-serif">from the Noun Project</text></svg>