<svg xmlns="http://www.w3.org/2000/svg" xmlns:xlink="http://www.w3.org/1999/xlink" version="1.1" x="0px" y="0px" viewBox="0 0 100 125" style="enable-background:new 0 0 100 100;" xml:space="preserve"><path d="M93.9,50.1c-1.1,0-2.1,0.9-2.1,2.1c0,23.3-19,42.3-42.3,42.3S7.2,75.5,7.2,52.2c0-22.3,17.4-40.7,39.4-42.2  l-1.8,1.4c-0.9,0.7-1.1,2-0.4,2.9c0.4,0.5,1,0.8,1.6,0.8c0.4,0,0.9-0.1,1.2-0.4l6.8-5.2c0.5-0.4,0.8-1,0.8-1.7  c0-0.7-0.4-1.3-0.9-1.6l-6.8-4.5c-0.9-0.6-2.2-0.4-2.8,0.6c-0.6,0.9-0.4,2.2,0.6,2.8l1.4,0.9C22.2,7.6,3.1,27.7,3.1,52.2  c0,25.6,20.8,46.4,46.4,46.4S96,77.8,96,52.2C96,51,95,50.1,93.9,50.1z"/><circle cx="92.4" cy="41.4" r="2.5"/><circle cx="89.1" cy="32.1" r="2.5"/><circle cx="83.1" cy="23.4" r="2.5"/><circle cx="74.8" cy="15.9" r="2.5"/><circle cx="64.9" cy="10.6" r="2.5"/><path d="M49.5,72.4L49.5,72.4c1.2-1,14.6-13.6,17.2-18.3c0,0,6.8-8.3,0-14.5c0,0-9.8-8.3-17.1,3  c-7.3-11.3-17.1-3-17.1-3c-6.8,6.2,0,14.5,0,14.5C35,58.7,47.9,70.9,49.5,72.4z"/><text x="0" y="115" fill="#000000" font-size="5px" font-weight="bold" font-family="'Helvetica Neue', Helvetica, Arial-Unicode, Arial, Sans-serif">Created by Aneeque Ahmed</text><text x="0" y="120" fill="#000000" font-size="5px" font-weight="bold" font-family="'Helvetica Neue', Helvetica, Arial-Unicode, Arial, Sans-serif">from the Noun Project</text></svg>