<svg xmlns="http://www.w3.org/2000/svg" viewBox="0 0 100 125" x="0px" y="0px"><title>Tavola disegno 841</title><path d="M95.39,41.81C89.93,23,72.48,8.94,51,6a35.42,35.42,0,0,0-11.59-.62l-1.24.14a6.55,6.55,0,0,0-4.21,1.62,1.45,1.45,0,0,0-.47,1.7C22.77,12.38,14.38,16.94,8.37,26.37,1.31,37.45-.9,49.77,2.31,60.17A49.43,49.43,0,0,0,50,94.91c1.43,0,2.88-.06,4.32-.18,14.91-1.22,28.41-8.62,36.11-19.8C97.13,65.18,98.85,53.72,95.39,41.81ZM86.22,71.53C80,81.21,69.09,88,56.92,89.63,33.58,92.81,11.09,77.37,6.81,55.21a31.84,31.84,0,0,1,5.13-24.39c6.44-9.48,17.67-16.53,30-18.86a37.2,37.2,0,0,1,5.5-.42C65.86,11.54,84.53,25.38,90,43A33.7,33.7,0,0,1,86.22,71.53Z"/><path d="M40.49,46.23a9.55,9.55,0,0,0-2.32-6.31,1,1,0,0,0-.3-.73c-1.43-1.4-2.59-1.34-3.3-1-2.44,1-2.52,5.88-2.52,5.93,0,1.84.18,4.44,1.79,5.72a3.32,3.32,0,0,0,2.11.71c.35,0-.27,0,.13-.14C38.13,49.89,40.37,48.38,40.49,46.23Z"/><path d="M64.27,39.61a2.51,2.51,0,0,0-2.77-.83,3.82,3.82,0,0,0-1.81,1.88l0,0a1,1,0,0,0-.37.87,13.24,13.24,0,0,0-.79,3.21c-.07,1.82.4,5.15,2.67,6.15a3.08,3.08,0,0,0,1.24.27c1.13,0,2.66-.66,4-3.51,1.26-2.7.48-5.69-2.07-8h0Z"/><path d="M59,32.5c2.61-.27,11.43-.64,15.41,5.61a2.56,2.56,0,0,0,1.42,1.08,2.66,2.66,0,0,0,3-1.3,2.28,2.28,0,0,0-.14-2.32c-4.46-7-13.21-8.74-19.91-8.06a2.61,2.61,0,0,0-2.32,2.93A2.23,2.23,0,0,0,59,32.5Z"/><path d="M39,33.29a2.19,2.19,0,0,0,2-1,2.66,2.66,0,0,0,.07-2.61,2.56,2.56,0,0,0-2.18-1.4c-6.73-.31-15.37,1.92-19.44,9.13a2.29,2.29,0,0,0,0,2.33A2.66,2.66,0,0,0,21.76,41a2.3,2.3,0,0,0,.79-.13,2.46,2.46,0,0,0,1.36-1.15C27.55,33.27,36.38,33.16,39,33.29Z"/><path d="M82.27,43.62h0L82,43.5l-.63-.25,0,.06c-5.86-1.4-12,5.22-16.6,10.13-1.09,1.19-2.13,2.3-3,3.12A99.59,99.59,0,0,0,52.5,67.43a25.71,25.71,0,0,0-14.31,4,2.23,2.23,0,0,0-1.11,2,2.77,2.77,0,0,0,1.47,2.25A2.42,2.42,0,0,0,41,75.56c6.4-4.08,14.48-4.2,24-.37a2.75,2.75,0,0,0,.61.16.78.78,0,0,0,.68.28,5.05,5.05,0,0,0,1.77-.48c.77-.32,3-3,5.13-5.45.32-.38.57-.68.7-.82,2.23-2.52,4.3-5.31,6.3-8,1-1.36,2-2.77,3.09-4.12,1.84-2.37,3.85-5.85,3-9A6.74,6.74,0,0,0,82.27,43.62ZM67.75,71a2.55,2.55,0,0,0-.62-.37,44.76,44.76,0,0,0-10.55-2.9c.64-.6,1.33-1.29,2.07-2l.57-.59c.42-.41.86-.9,1.34-1.46a37.56,37.56,0,0,1,3.57,2c1.77,1.11,3.39-1.69,1.63-2.8-1-.63-2-1.2-3.09-1.73.32-.39.64-.8,1-1.22l.79-1a11.13,11.13,0,0,0,1.09.71c.32.18.86.52,1.55.95a69.67,69.67,0,0,0,6.14,3.54c-1.42,1.78-2.83,3.57-4,5.1l-1.13,1.43C67.94,70.74,67.85,70.87,67.75,71ZM66.12,56.79q1.13-1.38,2.31-2.73a.57.57,0,0,0,.13.08,38,38,0,0,1,4.57,2.47c1.77,1.11,3.39-1.69,1.63-2.8A36.17,36.17,0,0,0,70.7,51.6c.62-.63,1.24-1.23,1.86-1.78a37,37,0,0,1,4.29,2.32c1.77,1.12,3.4-1.68,1.64-2.79-1-.63-2-1.19-3.08-1.72,2.28-1.44,4.48-2,6.41-.93a3.43,3.43,0,0,1,2,2.44c.41,2.58-2.72,5.88-4.79,8.07-.42.43-.79.83-1.09,1.16-.84,1-1.8,2.1-2.79,3.31A50.32,50.32,0,0,0,66.12,56.79Z"/><text x="0" y="115" fill="#000000" font-size="5px" font-weight="bold" font-family="'Helvetica Neue', Helvetica, Arial-Unicode, Arial, Sans-serif">Created by ester barbato</text><text x="0" y="120" fill="#000000" font-size="5px" font-weight="bold" font-family="'Helvetica Neue', Helvetica, Arial-Unicode, Arial, Sans-serif">from the Noun Project</text></svg>