<svg xmlns="http://www.w3.org/2000/svg" xmlns:xlink="http://www.w3.org/1999/xlink" version="1.1" x="0px" y="0px" viewBox="0 0 100 125" enable-background="new 0 0 100 100" xml:space="preserve"><g><path d="M50,91.667c-23.159,0-42-18.842-42-42c0-23.159,18.841-42,42-42c23.158,0,42,18.841,42,42   C92,72.825,73.158,91.667,50,91.667z M50,11.667c-20.953,0-38,17.047-38,38s17.047,38,38,38s38-17.047,38-38   S70.953,11.667,50,11.667z"/><path d="M72,58h-4v-3.667c0-1.105-0.895-2-2-2s-2,0.895-2,2V58h-4c-1.105,0-2,0.895-2,2s0.895,2,2,2h4v4.333c0,1.105,0.895,2,2,2   s2-0.895,2-2V62h4c1.105,0,2-0.895,2-2S73.105,58,72,58z"/><path d="M32.498,46.833c-0.911,0-1.734-0.627-1.947-1.553c-1.076-4.687,1.037-8.796,5.14-9.992c1.057-0.311,2.17,0.3,2.479,1.36   c0.31,1.06-0.3,2.17-1.36,2.479c-2.062,0.602-2.967,2.616-2.36,5.258c0.247,1.076-0.425,2.149-1.502,2.396   C32.797,46.816,32.646,46.833,32.498,46.833z"/><g><path d="M75.879,49.022c-1.043-0.959-2.219-1.771-3.502-2.406c-1.996-0.988-4.234-1.559-6.609-1.559    c-8.25,0-14.961,6.711-14.961,14.961c0,3.539,1.241,6.791,3.305,9.355c-1.719,1.342-3.17,2.391-4.095,3.037    c-4.626-3.328-22.259-16.803-22.259-28.729c0-7.067,3.821-11.287,10.223-11.287c8.94,0,10.402,11.504,10.46,12    C48.559,45.405,49.413,46,50.428,46c0.001,0,0.001,0,0.002,0c1.017,0,1.87-0.599,1.985-1.608    c0.057-0.497,1.492-12.079,10.429-12.079c6.182,0,9.871,4.319,9.871,11.484c0,0.919-0.139,1.867-0.338,2.798    c1.283,0.636,2.459,1.458,3.502,2.416c0.527-1.718,0.836-3.447,0.836-5.178c0-9.382-5.445-15.441-13.871-15.441    c-6.461,0-10.33,4.277-12.423,8.772c-2.104-4.494-5.98-8.771-12.44-8.771c-8.64,0-14.223,6.001-14.223,15.287    c0,15.786,24.102,32.135,25.128,32.823c0.337,0.227,0.726,0.34,1.114,0.34c0.38,0,0.76-0.107,1.092-0.324    c0.312-0.203,2.737-1.803,5.973-4.357c2.455,1.766,5.455,2.816,8.703,2.816c8.25,0,14.963-6.711,14.963-14.961    C80.73,55.669,78.854,51.759,75.879,49.022z M65.768,70.979c-1.994,0-3.859-0.545-5.473-1.479    c-1.184-0.688-2.23-1.584-3.082-2.646c-1.502-1.877-2.406-4.252-2.406-6.836c0-6.043,4.918-10.961,10.961-10.961    c1.932,0,3.748,0.508,5.326,1.389c1.201,0.672,2.268,1.559,3.139,2.615c1.561,1.895,2.498,4.318,2.498,6.957    C76.73,66.062,71.812,70.979,65.768,70.979z"/></g></g><text x="0" y="115" fill="#000000" font-size="5px" font-weight="bold" font-family="'Helvetica Neue', Helvetica, Arial-Unicode, Arial, Sans-serif">Created by Snehal Patil</text><text x="0" y="120" fill="#000000" font-size="5px" font-weight="bold" font-family="'Helvetica Neue', Helvetica, Arial-Unicode, Arial, Sans-serif">from the Noun Project</text></svg>