<svg xmlns="http://www.w3.org/2000/svg" xmlns:xlink="http://www.w3.org/1999/xlink" version="1.1" x="0px" y="0px" viewBox="0 0 100 125" enable-background="new 0 0 100 100" xml:space="preserve"><g><g><g><path d="M81.3,62c-0.9,6.5-9.1,21.2-15.3,25.7c-6.8,4.9-9.7-0.2-17.4-0.2c-3.4,0-5.4,3.4-8.9,2.9c-3.7-0.6-8.3-4.2-10.8-7.1     c-4.6-5.3-9.6-15.1-10.3-21.8c-1.5-13.5,7.2-34.5,32-28.9C74.8,27.6,83.1,48.5,81.3,62z"/></g></g><g><path d="M51.7,28.8c-0.4-5.6-0.6-11.3-1.9-16.8c-0.2-0.8-0.6-2.1-1.5-2.3c-0.8-0.2-3.1,0.7-3.2,1.5c0,0.6,0.8,1.2,1.2,1.6    c0.5,0.6,0.9,1.3,1.3,2.1c1.2,2.7,1.9,5.6,2.3,8.6c0.4,2.8,0.9,5.9,0.7,8.7c0,0.1,0,0.2,0,0.3c0,0.5,0.6,0.2,0.8,0    c0.3-0.2,0.4-0.7,0.4-1c0.1-0.8,0-1.6-0.1-2.4C51.7,29,51.7,28.9,51.7,28.8z"/></g><g><g><path d="M51.5,28.2c0,0,2.1-18.4,21-18.2C72.4,10,77.2,28.7,51.5,28.2z"/></g></g></g><text x="0" y="115" fill="#000000" font-size="5px" font-weight="bold" font-family="'Helvetica Neue', Helvetica, Arial-Unicode, Arial, Sans-serif">Created by Gravity Studio</text><text x="0" y="120" fill="#000000" font-size="5px" font-weight="bold" font-family="'Helvetica Neue', Helvetica, Arial-Unicode, Arial, Sans-serif">from the Noun Project</text></svg>