<svg xmlns="http://www.w3.org/2000/svg" xmlns:xlink="http://www.w3.org/1999/xlink" version="1.1" x="0px" y="0px" viewBox="0 0 500 625" enable-background="new 0 0 500 500" xml:space="preserve"><g><g><g><path d="M456.3,222.2c-15,0-30,0-45.1,0c-8.1,0-15,6.9-15,15c0,23.8,0,47.6,0,71.4c0,37.7,0,75.5,0,113.2     c0,8.7,0,17.4,0,26.1c5-5,10-10,15-15c-36.4,0-72.7,0-109.1,0c-57.9,0-115.8,0-173.7,0c-13.2,0-26.4,0-39.6,0c5,5,10,10,15,15     c0-23.8,0-47.6,0-71.4c0-37.7,0-75.5,0-113.2c0-8.7,0-17.4,0-26.1c0-8.1-6.9-15-15-15c-15,0-30,0-45.1,0     c3.5,8.5,7.1,17.1,10.6,25.6c23.3-20.9,46.6-41.8,69.8-62.7c37.1-33.3,74.1-66.5,111.2-99.8c8.4-7.6,16.9-15.1,25.3-22.7     c-7.1,0-14.1,0-21.2,0c23.3,20.9,46.6,41.8,69.8,62.7c37.1,33.3,74.1,66.5,111.2,99.8c8.4,7.6,16.9,15.1,25.3,22.7     c6,5.4,15.3,5.9,21.2,0c5.5-5.5,6.1-15.8,0-21.2c-23.3-20.9-46.6-41.8-69.8-62.7c-37.1-33.3-74.1-66.5-111.2-99.8     c-8.4-7.6-16.9-15.1-25.3-22.7c-6.3-5.6-14.9-5.7-21.2,0c-23.3,20.9-46.6,41.8-69.8,62.7c-37.1,33.3-74.1,66.5-111.2,99.8     c-8.4,7.6-16.9,15.1-25.3,22.7c-9.9,8.9-1.9,25.6,10.6,25.6c15,0,30,0,45.1,0c-5-5-10-10-15-15c0,23.8,0,47.6,0,71.4     c0,37.7,0,75.5,0,113.2c0,8.7,0,17.4,0,26.1c0,8.1,6.9,15,15,15c36.4,0,72.7,0,109.1,0c57.9,0,115.8,0,173.7,0     c13.2,0,26.4,0,39.6,0c8.1,0,15-6.9,15-15c0-23.8,0-47.6,0-71.4c0-37.7,0-75.5,0-113.2c0-8.7,0-17.4,0-26.1c-5,5-10,10-15,15     c15,0,30,0,45.1,0c7.8,0,15.4-6.9,15-15C470.9,229.1,464.7,222.2,456.3,222.2z"/></g></g><g><g><path d="M298.1,432.9c-28.2,0-56.4,0-84.6,0c-4.1,0-8.2,0-12.3,0c5,5,10,10,15,15c0-46.2,0-92.5,0-138.7     c0-6.4,0-12.9,0-19.3c-5,5-10,10-15,15c28.2,0,56.4,0,84.6,0c4.1,0,8.2,0,12.3,0c-5-5-10-10-15-15c0,46.2,0,92.5,0,138.7     c0,6.4,0,12.9,0,19.3c0,7.8,6.9,15.4,15,15c8.1-0.4,15-6.6,15-15c0-46.2,0-92.5,0-138.7c0-6.4,0-12.9,0-19.3c0-8.1-6.9-15-15-15     c-28.2,0-56.4,0-84.6,0c-4.1,0-8.2,0-12.3,0c-8.1,0-15,6.9-15,15c0,46.2,0,92.5,0,138.7c0,6.4,0,12.9,0,19.3c0,8.1,6.9,15,15,15     c28.2,0,56.4,0,84.6,0c4.1,0,8.2,0,12.3,0c7.8,0,15.4-6.9,15-15C312.7,439.7,306.5,432.9,298.1,432.9z"/></g></g></g><text x="0" y="515" fill="#000000" font-size="5px" font-weight="bold" font-family="'Helvetica Neue', Helvetica, Arial-Unicode, Arial, Sans-serif">Created by Neha Tyagi</text><text x="0" y="520" fill="#000000" font-size="5px" font-weight="bold" font-family="'Helvetica Neue', Helvetica, Arial-Unicode, Arial, Sans-serif">from the Noun Project</text></svg>