<svg xmlns="http://www.w3.org/2000/svg" data-name="Layer 1" viewBox="0 0 128 160" x="0px" y="0px"><title>Miscellaneous 84 solid</title><path d="M117.00146,56.00067a1.99177,1.99177,0,0,0,.89307-.21143l4-2a2.00023,2.00023,0,0,0-1.78906-3.57812l-4,2a2.00041,2.00041,0,0,0,.896,3.78955Z"/><path d="M117.89453,68.21112a2.00023,2.00023,0,1,0-1.78906,3.57813l4,2a2.00023,2.00023,0,0,0,1.78906-3.57812Z"/><path d="M117,64.00018h5a2,2,0,1,0,0-4h-5a2,2,0,0,0,0,4Z"/><path d="M87.54,126.66C94.13,107.93,104.28,79.4,105.17,77.62l.66-1.19c3.22-5.77,6.88-12.31,4.3-19.39C106.14,46.08,66.64,1.85,65,0H31a1.97848,1.97848,0,0,1,1.37.54L78.11,43.57a2.00225,2.00225,0,0,1,.1,2.82c-.04.04-3.98,4.4-3.35,8.47.3,1.92,1.59,3.51,3.95,4.86a2.02124,2.02124,0,0,0,1.62.19,12.51309,12.51309,0,0,1,6.72-.6c1.4.34,3.2-1.09,3.63-2.35.49-1.4.4-4.1-2.73-9.06L55.14,10.32a1.99857,1.99857,0,1,1,3.01-2.63L90.6,44.74s1.07,1.4,1.22,1.66c2.89,4.78,3.82,8.77,2.74,11.87a7.83546,7.83546,0,0,1-5.03,4.76,5.782,5.782,0,0,1-3.32.16,8.6528,8.6528,0,0,0-4.5.51,6.19127,6.19127,0,0,1-4.88-.51c-3.45-1.97-5.44-4.57-5.93-7.74-.64-4.16,1.62-8.12006,3.13-10.22L29.63,3.46A2.00006,2.00006,0,0,1,31,0H4.59a2.70744,2.70744,0,0,0-.01,3.41C27.33,26.27,65.57,64.68,66.11,65.12c2.96,2.41,2.42,4.26.8,8.6-.17.45-.34.91-.5,1.37C62.72,85.36,56.28,119.18,55.5,125.76a2.00361,2.00361,0,0,0,1.75,2.23,1.92484,1.92484,0,0,0,.24.01H68a1.97341,1.97341,0,0,1-.48-.06,1.99881,1.99881,0,0,1-1.46-2.42L77.03,81.33C75,78.2,74.34,75.26,75.07,72.59a9.40532,9.40532,0,0,1,5.08-5.7,11.5011,11.5011,0,0,1,14.6,5.22c2.99,5.69.1,11.13-2.85,15.27L80.95,121.86a1.99726,1.99726,0,1,1-3.81-1.2L88.18,85.87a1.96019,1.96019,0,0,1,.28-.56c3.53-4.89,4.35-8.28,2.75-11.34a7.55944,7.55944,0,0,0-9.48-3.4,5.39163,5.39163,0,0,0-2.8,3.1c-.46,1.66.18,3.72,1.89,6.11a2.01555,2.01555,0,0,1,.31,1.65L69.94,126.48A2.00406,2.00406,0,0,1,68,128H85A2.43538,2.43538,0,0,0,87.54,126.66Z"/><text x="0" y="143" fill="#000000" font-size="5px" font-weight="bold" font-family="'Helvetica Neue', Helvetica, Arial-Unicode, Arial, Sans-serif">Created by priyanka</text><text x="0" y="148" fill="#000000" font-size="5px" font-weight="bold" font-family="'Helvetica Neue', Helvetica, Arial-Unicode, Arial, Sans-serif">from the Noun Project</text></svg>