<svg xmlns="http://www.w3.org/2000/svg" xmlns:xlink="http://www.w3.org/1999/xlink" version="1.1" x="0px" y="0px" viewBox="0 0 100 125" style="enable-background:new 0 0 100 100;" xml:space="preserve"><g><path d="M85.1,50.7c-4.5-22.3-18.9-28.9-21.8-30.1c-0.4-0.2-0.8-0.3-1.2-0.3c-4.9-0.2-6.9,9.2-7.6,19.4l-2.7-3.7V11.3   c0-1.2-1-2.2-2.2-2.2c-1.2,0-2.2,1-2.2,2.2v24.7l-2.8,3.8c-0.7-10.2-2.7-19.8-7.7-19.5c-0.4,0-0.8,0.1-1.2,0.3   c-2.9,1.1-17.3,7.8-21.8,30.1c0,0-3.4,13.7-1.6,32.2c0.2,2.2,2.1,3.9,4.3,3.8c1.4-0.1,3.3-0.6,5.8-2c0,0,10-3.9,16.7-11.2   c3.6-3.8,5.5-8.9,5.7-14.1c0.1-2.8,0.2-6.6,0.1-10.8l4.6-6.7l4.5,6.6c-0.1,4.3,0,8.2,0.1,11c0.2,5.2,2.1,10.3,5.7,14.1   c6.7,7.3,16.7,11.2,16.7,11.2c2.5,1.4,4.4,1.9,5.8,2c2.2,0.1,4.1-1.6,4.3-3.8C88.5,64.5,85.1,50.7,85.1,50.7"/></g><text x="0" y="115" fill="#000000" font-size="5px" font-weight="bold" font-family="'Helvetica Neue', Helvetica, Arial-Unicode, Arial, Sans-serif">Created by Sophie Bolton</text><text x="0" y="120" fill="#000000" font-size="5px" font-weight="bold" font-family="'Helvetica Neue', Helvetica, Arial-Unicode, Arial, Sans-serif">from the Noun Project</text></svg>