<svg xmlns="http://www.w3.org/2000/svg" data-name="Layer 1" viewBox="0 0 96 120" x="0px" y="0px"><path d="M19.88965,77.63867a4.43668,4.43668,0,0,0,6.27441,6.27442c1.73145-1.73145,2.374-5.11524.60742-6.88184C25.00586,75.26465,21.62109,75.90625,19.88965,77.63867ZM24.75,82.499a2.4369,2.4369,0,1,1-3.44629-3.44629,4.07339,4.07339,0,0,1,2.69238-1.07324,1.89052,1.89052,0,0,1,1.36133.46582C26.24512,79.333,25.76758,81.48145,24.75,82.499Z"/><path d="M37.707,67.51074,36.293,66.09668l-2.416,2.41595c-2.14074-1.31549-5.34259-.73358-7.60846,1.53229l-.0039.00391-.00586.00488a1.56535,1.56535,0,0,1-1.0752.48731A11.39915,11.39915,0,0,0,17.46,73.99414c-4.07519,4.07422-4.62012,10.16016-1.21484,13.56445A7.88968,7.88968,0,0,0,21.916,89.794,11.83277,11.83277,0,0,0,33.2627,78.62109,1.575,1.575,0,0,1,33.749,77.543l.00879-.00879c2.26667-2.26581,2.848-5.46674,1.53308-7.6073Zm-5.36328,8.60938-.00391.00293-.00293.0039a3.561,3.561,0,0,0-1.07421,2.459,9.3948,9.3948,0,0,1-2.86719,6.34277c-3.29492,3.29492-8.11133,3.84082-10.73633,1.21582S15.5791,78.70313,18.874,75.4082A9.3863,9.3863,0,0,1,25.21777,72.541a3.55792,3.55792,0,0,0,2.459-1.0752l.00586-.00684c1.78711-1.78808,4.28711-2.19726,5.57324-.91113C34.54,71.833,34.13184,74.333,32.34375,76.12012Z"/><path d="M48.88184,8.52734a1.04267,1.04267,0,0,0-1.76368,0l-45,84A1.00017,1.00017,0,0,0,3,94H93a1.00017,1.00017,0,0,0,.88184-1.47266ZM75.25867,62H20.74133L30.91992,43H65.08008ZM48,11.11719,64.00867,41H31.99133ZM4.66992,92l15-28H76.33008l15,28Z"/><path d="M52.85059,71.71973a7.4881,7.4881,0,0,0-3.7118.35016,8.87173,8.87173,0,0,1,1.3573-3.441L48.832,67.51953a10.86375,10.86375,0,0,0-1.73724,4.65412,7.49124,7.49124,0,0,0-3.94538-.45392A7.17879,7.17879,0,0,0,38.37109,74.75,7.90134,7.90134,0,0,0,37.165,80.86133c.83789,4.16894,4.80566,9.77637,9.07422,9.07812a7.28556,7.28556,0,0,0,1.09277-.26757,2.17824,2.17824,0,0,1,1.33692.001,7.451,7.451,0,0,0,1.09375.26758A4.56839,4.56839,0,0,0,50.49707,90c3.99414-.001,7.54883-5.21,8.33789-9.13867A7.90134,7.90134,0,0,0,57.62891,74.75,7.17879,7.17879,0,0,0,52.85059,71.71973ZM56.874,80.4668c-.67382,3.35644-3.82617,7.98242-6.78711,7.5a5.35837,5.35837,0,0,1-.792-.19336,4.15954,4.15954,0,0,0-2.58887-.001,5.19437,5.19437,0,0,1-.791.19336c-2.96094.5-6.11524-4.14258-6.78906-7.499a5.91684,5.91684,0,0,1,.88965-4.57813,5.1884,5.1884,0,0,1,3.456-2.19433,5.63646,5.63646,0,0,1,3.98437.88379.99871.99871,0,0,0,1.0879,0,5.64389,5.64389,0,0,1,3.98437-.88379,5.18844,5.18844,0,0,1,3.45606,2.19433A5.91688,5.91688,0,0,1,56.874,80.4668Z"/><path d="M74.83984,70.68164a5.23426,5.23426,0,0,0-4.5957-.96289c-.05957-.05371-.12109-.10742-.18359-.16016a5.40295,5.40295,0,1,0-6.89844,8.28711,6.02828,6.02828,0,0,0,.69141.4961,5.051,5.051,0,0,0,1.74511,3.43847h.001a4.92806,4.92806,0,0,0,2.89062,1.10352,4.81623,4.81623,0,0,0,4.81836,3.76367,6.29791,6.29791,0,0,0,1.40332-.16308,7.99986,7.99986,0,0,0,3.681-2.03315L82.4043,90.1748,84.043,89.02637,79.72491,82.871a8.03471,8.03471,0,0,0,1.39325-4.081,5.2243,5.2243,0,0,0-1.77929-4.36231,4.92231,4.92231,0,0,0-2.88965-1.10449A4.92406,4.92406,0,0,0,74.83984,70.68164ZM79.12012,78.707a5.78459,5.78459,0,0,1-.66437,2.3548l-.25165-.3587a23.59436,23.59436,0,0,0-4.49121-4.09375,40.45653,40.45653,0,0,0-3.75781-2.3125l-2.6084-1.39356L66.40332,74.667l2.60352,1.39063a38.31812,38.31812,0,0,1,3.56543,2.19433,21.6273,21.6273,0,0,1,4.05078,3.67383l.59845.85394a6.09007,6.09007,0,0,1-2.95392,1.75446,3.27524,3.27524,0,0,1-2.88867-.54492A3.125,3.125,0,0,1,70.334,81.78809a.99885.99885,0,0,0-.99707-.9209c-.03418,0-.06836.002-.10253.00488a3.12238,3.12238,0,0,1-2.3545-.62891,3.21547,3.21547,0,0,1-1.05859-2.5166.99992.99992,0,0,0-.55859-.88965,4.148,4.148,0,0,1-.82129-.52832,3.409,3.409,0,1,1,4.33789-5.21386,4.40345,4.40345,0,0,1,.42578.416,1.00229,1.00229,0,0,0,1.0459.27832,3.43662,3.43662,0,0,1,3.30957.42969,3.13116,3.13116,0,0,1,1.04492,2.20117,1.00008,1.00008,0,0,0,.35742.68946,1.02006,1.02006,0,0,0,.74316.22656,3.13589,3.13589,0,0,1,2.35352.6289A3.2783,3.2783,0,0,1,79.12012,78.707Z"/><path d="M32.94629,53l-1.89453,5.68359a.99965.99965,0,0,0,1.44433,1.18457l6.39258-3.65332a34.068,34.068,0,0,0,10.59668,2.66309c6.875.65625,14.61817-1.41211,17.27637-3.67773a3.08033,3.08033,0,0,0,1.23437-2.09766,2.65513,2.65513,0,0,0-.89257-2.05078c-2.50391-2.53028-10.54883-4.35156-17.57715-3.97363a28.76813,28.76813,0,0,0-10.75,2.64355l-6.28028-3.58984a.99967.99967,0,0,0-1.44433,1.18457ZM66,52.97559c-.00781.11914-.15234.376-.53613.70214-1.4383,1.22663-4.71808,2.372-8.46387,2.943V49.44739c4.08752.60834,7.48108,1.79761,8.68164,3.01062C65.9248,52.7041,66.00586,52.88672,66,52.97559Zm-31.05176-.292L33.77637,49.167l4.499,2.57129a.9968.9968,0,0,0,1.00977-.00976c2.23242-1.33594,6.584-2.45118,10.34863-2.65235A36.32358,36.32358,0,0,1,55,49.20325v7.65912a29.0082,29.0082,0,0,1-5.3252.02533,30.3088,30.3088,0,0,1-10.31933-2.68555.99905.99905,0,0,0-.9834.00488l-4.5957,2.626,1.17187-3.5166A.98856.98856,0,0,0,34.94824,52.68359Z"/><rect x="59" y="51" width="2" height="2"/><path d="M43,32.8291V38a.99943.99943,0,0,0,1,1h8a.99943.99943,0,0,0,1-1V32.82813a3.04151,3.04151,0,0,0,2-2.89161A4.94253,4.94253,0,0,0,50.06348,25h-4.127A4.94253,4.94253,0,0,0,41,29.93652V30A3.0062,3.0062,0,0,0,43,32.8291Zm0-2.89258A2.93993,2.93993,0,0,1,45.93652,27h4.127A2.95415,2.95415,0,0,1,53,30a1.00067,1.00067,0,0,1-1,1,.99943.99943,0,0,0-1,1v5H45V32a.99943.99943,0,0,0-1-1,1.00067,1.00067,0,0,1-1-1Z"/><path d="M93.85742,22.48535l-3-5A1.00022,1.00022,0,0,0,90,17H84.56641L82.1662,13l2.40021-4H90V7H84.56622l-2.7088-4.51465A1.00022,1.00022,0,0,0,81,2H75a1.00022,1.00022,0,0,0-.85742.48535l-3,5a.99866.99866,0,0,0,0,1.0293L73.8338,13l-2.4,4H66v2h5.43378l2.4,4-2.69122,4.48535a.99866.99866,0,0,0,0,1.0293l3,5A1.00022,1.00022,0,0,0,75,34h5.43378l2.4,4-2.69122,4.48535,1.71484,1.0293L84.56622,39H90V37H84.56641L82.1662,33l2.4-4H90a1.00022,1.00022,0,0,0,.85742-.48535l3-5A.99866.99866,0,0,0,93.85742,22.48535ZM73.166,8l2.40039-4h4.86718l2.40027,3.99982L80.43359,12H75.56641Zm0,10,2.40014-4h4.86762l2.4,4-2.40021,4H75.56641Zm7.26757,14H75.56641L73.166,28l2.40039-4h4.86718l2.40027,4.00018Zm9-5H84.56641L82.1662,23l2.40021-4h4.86718L91.834,23Z"/><rect x="76" y="16" width="2" height="2"/><rect x="87" y="23" width="2" height="2"/><path d="M11,20a9,9,0,1,0-9-9A9.00984,9.00984,0,0,0,11,20ZM11,4a7,7,0,1,1-7,7A7.00849,7.00849,0,0,1,11,4Z"/><polygon points="10 16 12 16 12 12 16 12 16 10 12 10 12 6 10 6 10 10 6 10 6 12 10 12 10 16"/><path d="M13,38a9,9,0,1,0,9,9A9.00984,9.00984,0,0,0,13,38Zm0,16a7,7,0,1,1,7-7A7.00849,7.00849,0,0,1,13,54Z"/><polygon points="14 42 12 42 12 46 8 46 8 48 12 48 12 52 14 52 14 48 18 48 18 46 14 46 14 42"/><text x="0" y="111" fill="#000000" font-size="5px" font-weight="bold" font-family="'Helvetica Neue', Helvetica, Arial-Unicode, Arial, Sans-serif">Created by Nithinan Tatah</text><text x="0" y="116" fill="#000000" font-size="5px" font-weight="bold" font-family="'Helvetica Neue', Helvetica, Arial-Unicode, Arial, Sans-serif">from the Noun Project</text></svg>