<svg xmlns="http://www.w3.org/2000/svg" xmlns:xlink="http://www.w3.org/1999/xlink" version="1.1" x="0px" y="0px" viewBox="0 0 32 40" enable-background="new 0 0 32 32" xml:space="preserve"><g><path d="M28,25c-0.71,0-1.355,0.259-1.869,0.672l-10.03-7.085c0.462-0.757,0.743-1.637,0.743-2.587c0-0.94-0.277-1.812-0.73-2.563   l6.999-4.683C23.841,9.518,24.863,10,26,10c2.206,0,4-1.794,4-4s-1.794-4-4-4s-4,1.794-4,4c0,0.346,0.058,0.676,0.141,0.997   l-7.395,4.948c-0.562-0.403-1.202-0.701-1.902-0.844V6.815c1.162-0.414,2-1.514,2-2.815c0-1.654-1.346-3-3-3s-3,1.346-3,3   c0,1.302,0.838,2.401,2,2.815v4.286c-2.279,0.464-4,2.484-4,4.898c0,1.458,0.638,2.76,1.637,3.675l-2.417,3.487   C5.722,23.067,5.371,23,5,23c-2.206,0-4,1.794-4,4s1.794,4,4,4s4-1.794,4-4c0-1.112-0.458-2.118-1.193-2.844l2.396-3.456   c0.517,0.182,1.063,0.3,1.642,0.3c1.077,0,2.07-0.351,2.887-0.933l10.338,7.303C25.025,27.574,25,27.784,25,28c0,1.654,1.346,3,3,3   s3-1.346,3-3S29.654,25,28,25z M26,4c1.103,0,2,0.897,2,2s-0.897,2-2,2s-2-0.897-2-2S24.897,4,26,4z M5,29c-1.103,0-2-0.897-2-2   s0.897-2,2-2s2,0.897,2,2S6.103,29,5,29z M11.844,3c0.551,0,1,0.448,1,1s-0.449,1-1,1s-1-0.448-1-1S11.292,3,11.844,3z M8.844,16   c0-1.654,1.346-3,3-3s3,1.346,3,3s-1.346,3-3,3S8.844,17.654,8.844,16z M28,29c-0.551,0-1-0.448-1-1s0.449-1,1-1s1,0.448,1,1   S28.551,29,28,29z"/></g><text x="0" y="47" fill="#000000" font-size="5px" font-weight="bold" font-family="'Helvetica Neue', Helvetica, Arial-Unicode, Arial, Sans-serif">Created by Icon Lauk</text><text x="0" y="52" fill="#000000" font-size="5px" font-weight="bold" font-family="'Helvetica Neue', Helvetica, Arial-Unicode, Arial, Sans-serif">from the Noun Project</text></svg>