<svg xmlns="http://www.w3.org/2000/svg" xmlns:xlink="http://www.w3.org/1999/xlink" xmlns:a="http://ns.adobe.com/AdobeSVGViewerExtensions/3.0/" version="1.1" x="0px" y="0px" viewBox="-11.357 -1.141 100 125" enable-background="new -11.357 -1.141 100 100" xml:space="preserve"><path d="M76.271,27.651c-5.03-7.057-11.592-10.635-19.503-10.635c-5.061,0-10.623,1.434-16.983,4.38  c-0.347,0.011-0.684,0.017-1.009,0.017c-4.431,0-7.361-1.014-9.501-3.288c-1.154-1.226-3.22-4.62-4.086-13.579l-0.115-1.185  L24.33,2.432C23.094,0.887,21.122,0,18.92,0h0c-1.878,0-3.864,0.625-5.306,1.759c-1.814,1.428-2.971,3.486-2.971,5.797v0.216  l0.18,0.214c0.06,0.544,0.19,1.143,0.246,1.782c0.458,5.233,1.191,13.14,6.779,19.076c3.864,4.105,8.428,6.074,12.553,7.06  c-0.623,1.666-0.943,3.737-0.496,6.424c1.901,11.411-3.512,13.32-5.292,13.948c-3.38,1.192-5.903,3.12-7.383,4.473  c-2.377,0.06-5.786,0.792-9.119,3.773c-6.814,6.1-8.313,22.169-8.089,27.333l0.046,1.07l0.576,0.903  c1.592,2.502,4.274,3.996,7.174,3.996c2.858,0,5.399-1.462,6.798-3.909l0.571-1l-0.048-1.151c-0.216-5.184,1.87-13.876,2.966-15.67  c0.483-0.498,0.891-0.833,1.229-1.061c4.951,4.06,11.414,6.115,19.249,6.115c3.863,0,8.087-0.517,12.558-1.537  C61.21,77.316,69.75,71.186,74.57,62.792C81.599,50.559,82.299,36.108,76.271,27.651z M71.102,60.8  c-4.289,7.469-11.777,12.844-20.85,14.912c-4.313,0.984-8.193,1.437-11.668,1.437c-8.249,0-14.212-2.553-18.252-6.606  c-0.505,0.084-2.467-0.014-5.234,2.91c-1.75,1.848-4.205,12.479-3.955,18.479c-0.724,1.267-2,1.894-3.325,1.894  c-1.42,0-2.895-0.721-3.8-2.144c-0.25-5.75,1.694-19.643,6.761-24.178c2.653-2.373,5.256-2.76,6.784-2.76  c0.617,0,1.058,0.063,1.257,0.084c0,0,2.692-3.215,7.127-4.779c7.436-2.621,9.345-9.783,7.913-18.377  c-0.75-4.5,1.391-6.101,2.983-8.839c-5.645-0.439-11.522-1.925-16.044-6.729c-5.287-5.617-5.342-13.921-5.842-18.546  C14.957,5.222,17.067,4,18.919,4c0.926,0,1.787,0.306,2.287,0.931c0.375,3.875,1.412,11.958,5.155,15.935  c3.182,3.38,7.364,4.546,12.414,4.546c0.647,0,1.309-0.019,1.984-0.055c5.991-2.858,11.307-4.341,16.009-4.341  c6.557,0,11.919,2.887,16.245,8.957C77.947,36.895,77.549,49.579,71.102,60.8z"/><path d="M68.595,53.249c0-4.588-3.72-8.307-8.306-8.307c-3.042,0-5.699,2.368-7.146,4.807c-1.448-2.438-4.105-4.807-7.146-4.807  c-4.588,0-8.308,3.719-8.308,8.307c0,2.845,1.91,4.798,3.61,6.852c2.635,3.181,9.873,9.258,11.902,9.759  c1.956-0.607,9.193-6.396,12.216-10.075C66.591,58.357,68.595,55.901,68.595,53.249z"/><text x="-11.357" y="113.859" fill="#000000" font-size="5px" font-weight="bold" font-family="'Helvetica Neue', Helvetica, Arial-Unicode, Arial, Sans-serif">Created by Cassie McKown</text><text x="-11.357" y="118.859" fill="#000000" font-size="5px" font-weight="bold" font-family="'Helvetica Neue', Helvetica, Arial-Unicode, Arial, Sans-serif">from the Noun Project</text></svg>